<svg width="109" height="60" viewBox="0 0 109 60" fill="none" xmlns="http://www.w3.org/2000/svg">
    <g filter="url(#filter0_d)">
        <rect x="20" y="16" width="69" height="20" fill="white"/>
    </g>
    <path d="M42.72 29H43.704V27.2H44.816C46.048 27.2 47.056 26.544 47.056 25.288V25.272C47.056 24.144 46.232 23.4 44.928 23.4H42.72V29ZM43.704 26.312V24.296H44.848C45.584 24.296 46.056 24.64 46.056 25.296V25.312C46.056 25.896 45.592 26.312 44.848 26.312H43.704ZM48.0638 29H49.0478V27.048H50.2798L51.6558 29H52.8158L51.3038 26.88C52.0878 26.656 52.6398 26.104 52.6398 25.184V25.168C52.6398 24.68 52.4718 24.264 52.1758 23.96C51.8158 23.608 51.2638 23.4 50.5598 23.4H48.0638V29ZM49.0478 26.176V24.296H50.4798C51.2078 24.296 51.6398 24.624 51.6398 25.224V25.24C51.6398 25.808 51.1918 26.176 50.4878 26.176H49.0478ZM53.845 29H58.037V28.12H54.829V26.616H57.637V25.736H54.829V24.28H57.997V23.4H53.845V29ZM59.2044 29H60.1724V25L61.9244 27.624H61.9564L63.7244 24.984V29H64.7084V23.4H63.6604L61.9564 26.048L60.2524 23.4H59.2044V29ZM66.2057 29H67.1897V23.4H66.2057V29ZM70.9848 29.088C72.4488 29.088 73.3928 28.248 73.3928 26.576V23.4H72.4088V26.624C72.4088 27.656 71.8728 28.184 71.0008 28.184C70.1208 28.184 69.5848 27.624 69.5848 26.584V23.4H68.6008V26.624C68.6008 28.248 69.5288 29.088 70.9848 29.088ZM74.7434 29H75.7114V25L77.4634 27.624H77.4954L79.2634 24.984V29H80.2474V23.4H79.1994L77.4954 26.048L75.7914 23.4H74.7434V29Z" fill="#FEAA2B"/>
    <g clip-path="url(#clip0)">
        <path d="M28.399 28.0411H37.5927L37.5661 28.3077C37.4839 28.9655 37.0162 29.3497 36.5408 29.3497H29.4509C28.9137 29.3497 28.4932 28.8871 28.4262 28.3125C28.4255 28.3066 28.4291 28.343 28.399 28.0411Z" fill="#FEAA2B"/>
        <path d="M37.9937 24.0235L37.6513 27.4551H28.3409L28.0066 24.0963C27.9171 23.3087 28.7666 22.9447 29.1588 23.3954C30.1024 24.4834 30.2035 24.6982 30.5204 24.6604C30.6396 24.6459 30.7247 24.5925 30.7954 24.5274C32.7166 22.6842 32.5909 22.8036 32.6107 22.7879C32.8693 22.589 33.2018 22.6218 33.3966 22.784C35.3378 24.4152 35.2478 24.3433 35.2912 24.368C35.4724 24.4722 35.6862 24.4589 35.8689 24.2797C36.9477 23.2197 36.8793 23.2858 36.8993 23.2698C37.3927 22.8856 38.0727 23.332 37.9937 24.0235Z" fill="#FEAA2B"/>
    </g>
    <defs>
        <filter id="filter0_d" x="0" y="0" width="109" height="60" filterUnits="userSpaceOnUse" color-interpolation-filters="sRGB">
            <feFlood flood-opacity="0" result="BackgroundImageFix"/>
            <feColorMatrix in="SourceAlpha" type="matrix" values="0 0 0 0 0 0 0 0 0 0 0 0 0 0 0 0 0 0 127 0"/>
            <feOffset dy="4"/>
            <feGaussianBlur stdDeviation="10"/>
            <feColorMatrix type="matrix" values="0 0 0 0 0 0 0 0 0 0 0 0 0 0 0 0 0 0 0.3 0"/>
            <feBlend mode="normal" in2="BackgroundImageFix" result="effect1_dropShadow"/>
            <feBlend mode="normal" in="SourceGraphic" in2="effect1_dropShadow" result="shape"/>
        </filter>
        <clipPath id="clip0">
            <rect width="10" height="10" fill="white" transform="translate(28 21)"/>
        </clipPath>
    </defs>
</svg>
