<svg width="16" height="16" viewBox="0 0 16 16" fill="none" xmlns="http://www.w3.org/2000/svg">
    <path d="M11.125 7.59375C11.5565 7.59375 11.9062 7.24397 11.9062 6.8125C11.9062 6.38103 11.5565 6.03125 11.125 6.03125C10.6935 6.03125 10.3438 6.38103 10.3438 6.8125C10.3438 7.24397 10.6935 7.59375 11.125 7.59375Z" fill="#9D9D9D"/>
    <path d="M8 7.59375C8.43147 7.59375 8.78125 7.24397 8.78125 6.8125C8.78125 6.38103 8.43147 6.03125 8 6.03125C7.56853 6.03125 7.21875 6.38103 7.21875 6.8125C7.21875 7.24397 7.56853 7.59375 8 7.59375Z" fill="#9D9D9D"/>
    <path d="M4.875 7.59375C5.30647 7.59375 5.65625 7.24397 5.65625 6.8125C5.65625 6.38103 5.30647 6.03125 4.875 6.03125C4.44353 6.03125 4.09375 6.38103 4.09375 6.8125C4.09375 7.24397 4.44353 7.59375 4.875 7.59375Z" fill="#9D9D9D"/>
    <path d="M15.375 0H0.625C0.279813 0 0 0.279813 0 0.625V13C0 13.3452 0.279813 13.625 0.625 13.625H6.15553L7.47156 15.7087C7.58609 15.8901 7.78556 16 8 16C8.21444 16 8.41391 15.8901 8.52844 15.7087L9.84447 13.625H15.375C15.7202 13.625 16 13.3452 16 13V0.625C16 0.279813 15.7202 0 15.375 0ZM14.75 12.375H9.5C9.28556 12.375 9.08609 12.4849 8.97156 12.6663L8 14.2046L7.02844 12.6663C6.91391 12.4849 6.71444 12.375 6.5 12.375H1.25V1.25H14.75V12.375Z" fill="#9D9D9D"/>
</svg>
