<svg width="20" height="20" viewBox="0 0 20 20" fill="none" xmlns="http://www.w3.org/2000/svg">
    <path d="M18.3644 2.45472C17.33 1.3428 15.8804 0.710134 14.3617 0.707789C12.8417 0.709548 11.3906 1.34188 10.3546 2.45401L10.0015 2.82714L9.64836 2.45401C7.59251 0.24135 4.13215 0.114281 1.91953 2.17013C1.82148 2.26127 1.72679 2.35592 1.63565 2.45401C-0.545218 4.80635 -0.545218 8.44177 1.63565 10.7941L9.48255 19.0692C9.75403 19.3558 10.2064 19.368 10.493 19.0966C10.5024 19.0877 10.5115 19.0785 10.5204 19.0692L18.3645 10.7941C20.5452 8.44202 20.5452 4.80681 18.3644 2.45472ZM17.3302 9.80984H17.3294L10.0015 17.5388L2.67282 9.80984C1.00676 8.01244 1.00676 5.23496 2.67282 3.43756C4.1858 1.79772 6.74172 1.6949 8.38156 3.20788C8.46118 3.28134 8.53778 3.35795 8.61124 3.43756L9.48255 4.35679C9.76969 4.64209 10.2333 4.64209 10.5204 4.35679L11.3917 3.43828C12.9047 1.79843 15.4606 1.69561 17.1005 3.2086C17.1801 3.28206 17.2567 3.35866 17.3302 3.43828C19.0107 5.23852 19.023 8.02107 17.3302 9.80984Z" fill="white"/>
</svg>
