<svg width="16" height="16" viewBox="0 0 16 16" fill="none" xmlns="http://www.w3.org/2000/svg">
    <path d="M15.0304 5.78206H13.7526V0H8.00001C4.82807 0 2.24748 2.58059 2.24748 5.75253V5.78203H0.969727V10.8271H3.2227C3.65223 11.9663 4.47801 12.9126 5.53129 13.4972V15.0625H3.66673V16H12.3334V15.0625H10.4688V13.4972C11.1244 13.1334 11.6918 12.6294 12.1304 12.026H13.1037V10.8271H15.0303V5.78206H15.0304ZM14.0929 9.88959H13.1037V6.71956H14.0929V9.88959ZM10.0519 11.0884V12.0259H10.8937C10.1437 12.751 9.12313 13.1979 8.00001 13.1979C5.70279 13.1979 3.83385 11.329 3.83385 9.03175V6.46875H5.23441L6.03126 5.40625C6.73382 6.07975 7.68201 6.46875 8.6667 6.46875H12.1662V11.0884H10.0519ZM6.46879 15.0625V13.9006C6.95238 14.0531 7.46676 14.1354 8.00007 14.1354C8.53335 14.1354 9.04773 14.0531 9.53132 13.9007V15.0625H6.46879ZM2.89638 9.88959H1.90723V6.71956H2.89638V9.88959ZM8.00001 0.9375H12.8151V5.53125H8.6667C7.76982 5.53125 6.91313 5.10291 6.37501 4.38541L6.00001 3.88541L4.76566 5.53125H3.19026C3.30632 2.97856 5.4192 0.9375 8.00001 0.9375Z" fill="#1A1919"/>
</svg>
