<svg width="16" height="16" viewBox="0 0 16 16" fill="none" xmlns="http://www.w3.org/2000/svg">
    <path d="M15.5 15.25H14.75V0.500041C14.75 0.459485 14.7401 0.419546 14.7212 0.383663C14.7023 0.347781 14.6749 0.317031 14.6415 0.294061C14.6081 0.271092 14.5696 0.256591 14.5293 0.251808C14.489 0.247024 14.4482 0.252102 14.4103 0.266603L7.91031 2.7666C7.86314 2.78477 7.82257 2.81679 7.79396 2.85846C7.76534 2.90013 7.75001 2.94949 7.75 3.00004V6.82848L1.41031 9.2666C1.36314 9.28477 1.32257 9.31679 1.29396 9.35846C1.26534 9.40013 1.25001 9.44949 1.25 9.50004V15.25H0.5C0.433696 15.25 0.370107 15.2764 0.323223 15.3233C0.276339 15.3701 0.25 15.4337 0.25 15.5C0.25 15.5663 0.276339 15.6299 0.323223 15.6768C0.370107 15.7237 0.433696 15.75 0.5 15.75H15.5C15.5663 15.75 15.6299 15.7237 15.6768 15.6768C15.7237 15.6299 15.75 15.5663 15.75 15.5C15.75 15.4337 15.7237 15.3701 15.6768 15.3233C15.6299 15.2764 15.5663 15.25 15.5 15.25ZM7.75 15.25H1.75V9.6716L7.75 7.3641V15.25ZM11 15.25H10V12.75H11V15.25ZM12.5 15.25H11.5V12.75H12.5V15.25ZM14.25 15.25H13V12.5C13 12.4337 12.9737 12.3701 12.9268 12.3233C12.8799 12.2764 12.8163 12.25 12.75 12.25H9.75C9.6837 12.25 9.62011 12.2764 9.57322 12.3233C9.52634 12.3701 9.5 12.4337 9.5 12.5V15.25H8.25V3.1716L14.25 0.864103V15.25Z" fill="#1A1919"/>
    <path d="M6.5 10.25H2.75C2.6837 10.25 2.62011 10.2763 2.57322 10.3232C2.52634 10.3701 2.5 10.4337 2.5 10.5V12C2.5 12.0663 2.52634 12.1299 2.57322 12.1768C2.62011 12.2237 2.6837 12.25 2.75 12.25H6.5C6.5663 12.25 6.62989 12.2237 6.67678 12.1768C6.72366 12.1299 6.75 12.0663 6.75 12V10.5C6.75 10.4337 6.72366 10.3701 6.67678 10.3232C6.62989 10.2763 6.5663 10.25 6.5 10.25ZM6.25 11.75H3V10.75H6.25V11.75Z" fill="#1A1919"/>
    <path d="M6.5 12.5H5C4.9337 12.5 4.87011 12.5263 4.82322 12.5732C4.77634 12.6201 4.75 12.6837 4.75 12.75V14.25C4.75 14.3163 4.77634 14.3799 4.82322 14.4268C4.87011 14.4737 4.9337 14.5 5 14.5H6.5C6.5663 14.5 6.62989 14.4737 6.67678 14.4268C6.72366 14.3799 6.75 14.3163 6.75 14.25V12.75C6.75 12.6837 6.72366 12.6201 6.67678 12.5732C6.62989 12.5263 6.5663 12.5 6.5 12.5ZM6.25 14H5.25V13H6.25V14Z" fill="#1A1919"/>
    <path d="M4.25 12.5H2.75C2.6837 12.5 2.62011 12.5263 2.57322 12.5732C2.52634 12.6201 2.5 12.6837 2.5 12.75V14.25C2.5 14.3163 2.52634 14.3799 2.57322 14.4268C2.62011 14.4737 2.6837 14.5 2.75 14.5H4.25C4.3163 14.5 4.37989 14.4737 4.42678 14.4268C4.47366 14.3799 4.5 14.3163 4.5 14.25V12.75C4.5 12.6837 4.47366 12.6201 4.42678 12.5732C4.37989 12.5263 4.3163 12.5 4.25 12.5ZM4 14H3V13H4V14Z" fill="#1A1919"/>
    <path d="M13.25 7.25H11.75C11.6837 7.25 11.6201 7.27634 11.5732 7.32322C11.5263 7.37011 11.5 7.4337 11.5 7.5V9C11.5 9.0663 11.5263 9.12989 11.5732 9.17678C11.6201 9.22366 11.6837 9.25 11.75 9.25H13.25C13.3163 9.25 13.3799 9.22366 13.4268 9.17678C13.4737 9.12989 13.5 9.0663 13.5 9V7.5C13.5 7.4337 13.4737 7.37011 13.4268 7.32322C13.3799 7.27634 13.3163 7.25 13.25 7.25ZM13 8.75H12V7.75H13V8.75Z" fill="#1A1919"/>
    <path d="M10.75 7.25H9.25C9.1837 7.25 9.12011 7.27634 9.07322 7.32322C9.02634 7.37011 9 7.4337 9 7.5V9C9 9.0663 9.02634 9.12989 9.07322 9.17678C9.12011 9.22366 9.1837 9.25 9.25 9.25H10.75C10.8163 9.25 10.8799 9.22366 10.9268 9.17678C10.9737 9.12989 11 9.0663 11 9V7.5C11 7.4337 10.9737 7.37011 10.9268 7.32322C10.8799 7.27634 10.8163 7.25 10.75 7.25ZM10.5 8.75H9.5V7.75H10.5V8.75Z" fill="#1A1919"/>
    <path d="M13.25 9.5H11.75C11.6837 9.5 11.6201 9.52634 11.5732 9.57322C11.5263 9.62011 11.5 9.6837 11.5 9.75V11.25C11.5 11.3163 11.5263 11.3799 11.5732 11.4268C11.6201 11.4737 11.6837 11.5 11.75 11.5H13.25C13.3163 11.5 13.3799 11.4737 13.4268 11.4268C13.4737 11.3799 13.5 11.3163 13.5 11.25V9.75C13.5 9.6837 13.4737 9.62011 13.4268 9.57322C13.3799 9.52634 13.3163 9.5 13.25 9.5ZM13 11H12V10H13V11Z" fill="#1A1919"/>
    <path d="M10.75 9.5H9.25C9.1837 9.5 9.12011 9.52634 9.07322 9.57322C9.02634 9.62011 9 9.6837 9 9.75V11.25C9 11.3163 9.02634 11.3799 9.07322 11.4268C9.12011 11.4737 9.1837 11.5 9.25 11.5H10.75C10.8163 11.5 10.8799 11.4737 10.9268 11.4268C10.9737 11.3799 11 11.3163 11 11.25V9.75C11 9.6837 10.9737 9.62011 10.9268 9.57322C10.8799 9.52634 10.8163 9.5 10.75 9.5ZM10.5 11H9.5V10H10.5V11Z" fill="#1A1919"/>
    <path d="M13.25 4.75H11.75C11.6837 4.75 11.6201 4.77634 11.5732 4.82322C11.5263 4.87011 11.5 4.9337 11.5 5V6.5C11.5 6.5663 11.5263 6.62989 11.5732 6.67678C11.6201 6.72366 11.6837 6.75 11.75 6.75H13.25C13.3163 6.75 13.3799 6.72366 13.4268 6.67678C13.4737 6.62989 13.5 6.5663 13.5 6.5V5C13.5 4.9337 13.4737 4.87011 13.4268 4.82322C13.3799 4.77634 13.3163 4.75 13.25 4.75ZM13 6.25H12V5.25H13V6.25Z" fill="#1A1919"/>
    <path d="M10.75 4.75H9.25C9.1837 4.75 9.12011 4.77634 9.07322 4.82322C9.02634 4.87011 9 4.9337 9 5V6.5C9 6.5663 9.02634 6.62989 9.07322 6.67678C9.12011 6.72366 9.1837 6.75 9.25 6.75H10.75C10.8163 6.75 10.8799 6.72366 10.9268 6.67678C10.9737 6.62989 11 6.5663 11 6.5V5C11 4.9337 10.9737 4.87011 10.9268 4.82322C10.8799 4.77634 10.8163 4.75 10.75 4.75ZM10.5 6.25H9.5V5.25H10.5V6.25Z" fill="#1A1919"/>
</svg>
