<svg width="127" height="172" viewBox="0 0 127 172" fill="none" xmlns="http://www.w3.org/2000/svg">
    <path d="M95.12 0H126.594C126.652 10.5562 126.606 21.1166 126.615 31.677C116.1 31.6853 105.585 31.6853 95.0703 31.677C95.0993 21.1166 95.004 10.5562 95.12 0Z" fill="#3B3B3A"/>
    <path d="M0.471457 48.2886C42.5223 48.2804 84.5731 48.2762 126.62 48.2928C126.624 89.5271 126.62 130.766 126.62 172H95.0672C95.0672 162.306 95.0755 152.612 95.063 142.918C84.5607 142.909 74.0542 142.909 63.5477 142.918C63.5394 152.612 63.5477 162.306 63.5477 172H31.9951C31.9909 141.28 31.9992 110.561 31.9909 79.8371C21.4844 79.8288 10.9821 79.8413 0.475601 79.833C0.463168 69.3182 0.471457 58.8034 0.471457 48.2886ZM63.5477 79.8413C63.5477 90.3395 63.5394 100.838 63.5519 111.336C74.0666 111.278 84.5939 111.439 95.1045 111.257C95.0175 100.784 95.1003 90.3105 95.063 79.8413C84.5607 79.833 74.0542 79.833 63.5477 79.8413Z" fill="url(#paint0_angular)"/>
    <defs>
        <radialGradient id="paint0_angular" cx="0" cy="0" r="1" gradientUnits="userSpaceOnUse" gradientTransform="translate(63.5452 110.141) rotate(90) scale(61.8593 63.0765)">
            <stop stop-color="#1A1919"/>
            <stop offset="1" stop-color="#4E4E4C"/>
        </radialGradient>
    </defs>
</svg>
