<svg width="12" height="14" viewBox="0 0 12 14" fill="none" xmlns="http://www.w3.org/2000/svg">
    <path d="M6 0C3.05992 0 0.667969 2.39195 0.667969 5.33203C0.667969 7.23002 1.24533 7.99116 4.01979 11.6487C4.5014 12.2836 5.04729 13.0032 5.67188 13.8359C5.74934 13.9392 5.87091 14 6.00003 14C6.12914 14 6.25069 13.9392 6.32815 13.8359C6.94907 13.0076 7.49259 12.2908 7.97214 11.6583C10.7533 7.99009 11.332 7.22673 11.332 5.33203C11.332 2.39195 8.94008 0 6 0ZM7.31849 11.1627C6.92463 11.6822 6.4877 12.2584 5.99992 12.9069C5.5088 12.2543 5.06938 11.675 4.67334 11.1529C1.97456 7.59516 1.48828 6.95409 1.48828 5.33203C1.48828 2.84427 3.51224 0.820312 6 0.820312C8.48776 0.820312 10.5117 2.84427 10.5117 5.33203C10.5117 6.95092 10.0242 7.59396 7.31849 11.1627Z" fill="#1A1919"/>
</svg>
