<svg width="16" height="14" viewBox="0 0 16 14" fill="none" xmlns="http://www.w3.org/2000/svg">
    <path d="M16 7.8791C16 7.34985 15.7104 6.87301 15.2442 6.63463C14.7688 6.39151 14.1532 6.26823 13.4146 6.26823H5.38572C5.32791 5.97973 5.19981 5.7176 5.00766 5.50401L3.86906 4.23829C3.58731 3.92507 3.18244 3.73488 2.72906 3.70282L2.52453 3.68835C2.41981 3.68082 2.31341 3.6956 2.21128 3.72985V3.06076C2.21128 2.82638 2.11256 2.61473 1.95475 2.46476C2.11478 2.27295 2.21128 2.02632 2.21128 1.75757C2.21128 1.14792 1.71528 0.651947 1.10566 0.651947C0.496031 0.651947 0 1.14795 0 1.7576C0 2.02638 0.0965 2.27298 0.256531 2.46479C0.0987187 2.61479 0 2.82642 0 3.06079V13.0355C0 13.2081 0.139906 13.348 0.3125 13.348H1.39109C1.55228 13.348 1.68703 13.2254 1.70222 13.0649C1.73944 12.6714 1.94753 11.5906 2.46309 11.106H3.29988C3.47247 11.106 3.61238 10.966 3.61238 10.7935C3.61238 10.6209 3.47247 10.481 3.29988 10.481L0.624969 10.4809V7.72982L4.79609 7.72973V8.54407C4.79609 9.02588 5.18806 9.41788 5.66991 9.41788H5.66997H15.1262C15.2101 9.41788 15.2946 9.4057 15.375 9.38182V10.481H13.6529C13.6527 10.481 13.6524 10.481 13.6521 10.481H6.04956C5.87697 10.481 5.73706 10.6209 5.73706 10.7935C5.73706 10.9661 5.87697 11.106 6.04956 11.106H13.5369C14.0504 11.5893 14.2599 12.6711 14.2978 13.0649C14.313 13.2254 14.4477 13.348 14.6089 13.348H15.6875C15.8601 13.348 16 13.2081 16 13.0355V7.8791ZM2.21203 4.75163C2.21669 4.61848 2.19844 4.48088 2.30816 4.38298C2.41853 4.28448 2.55094 4.31676 2.68494 4.32626C2.98019 4.34717 3.22897 4.46126 3.40438 4.65629L4.54297 5.92204C4.72753 6.12717 4.81606 6.4131 4.79222 6.72707C4.78306 6.84795 4.78525 6.9551 4.68337 7.04038C4.59028 7.11832 4.48925 7.10379 4.37719 7.10045C4.06244 7.09101 3.78747 6.97282 3.60291 6.76767L2.46431 5.50195C2.28016 5.29717 2.20253 5.02351 2.21203 4.75163ZM0.625 7.10479V3.06079C0.625 2.95185 0.713625 2.86323 0.822563 2.86323H1.38866C1.49759 2.86323 1.58622 2.95185 1.58622 3.06079V7.10476H0.625V7.10479ZM2.21125 6.15507L3.06556 7.10479H2.21125V6.15507ZM1.10563 1.27698C1.37063 1.27698 1.58625 1.49257 1.58625 1.7576C1.58625 2.02263 1.37066 2.23823 1.10563 2.23823C0.840594 2.23823 0.625 2.02263 0.625 1.7576C0.625 1.49257 0.840594 1.27698 1.10563 1.27698ZM1.11881 12.723H0.625V11.106H1.67288C1.33469 11.6596 1.18175 12.3445 1.11881 12.723ZM5.66994 8.79292C5.53278 8.79292 5.42119 8.68132 5.42119 8.54417L5.42106 6.89323H13.4146C14.0533 6.89323 14.5732 6.99345 14.9596 7.19107C15.2158 7.32207 15.375 7.5857 15.375 7.8791V8.54298C15.375 8.54338 15.3749 8.54379 15.3749 8.5442C15.3749 8.68135 15.2633 8.79295 15.1262 8.79295H5.66994V8.79292ZM14.8812 12.723C14.8182 12.3445 14.6653 11.6597 14.3272 11.106H15.375V12.723H14.8812Z" fill="#1A1919"/>
</svg>
