<svg width="16" height="14" viewBox="0 0 16 14" fill="none" xmlns="http://www.w3.org/2000/svg">
    <path d="M15.5 7H3V6.5C3 6.4337 2.97366 6.37011 2.92678 6.32322C2.87989 6.27634 2.8163 6.25 2.75 6.25H2.5V5.5H3V5.75C3 5.8163 3.02634 5.87989 3.07322 5.92678C3.12011 5.97366 3.1837 6 3.25 6C3.3163 6 3.37989 5.97366 3.42678 5.92678C3.47366 5.87989 3.5 5.8163 3.5 5.75V4.75C3.5 4.6837 3.47366 4.62011 3.42678 4.57322C3.37989 4.52634 3.3163 4.5 3.25 4.5C3.1837 4.5 3.12011 4.52634 3.07322 4.57322C3.02634 4.62011 3 4.6837 3 4.75V5H2.5V2C2.50025 1.73486 2.60568 1.48065 2.79317 1.29317C2.98065 1.10568 3.23486 1.00025 3.5 1H4.5C4.76514 1.00025 5.01935 1.10568 5.20683 1.29317C5.39431 1.48065 5.49975 1.73486 5.5 2V2.02125C5.15071 2.08073 4.83369 2.26176 4.60495 2.53235C4.37622 2.80294 4.25049 3.14568 4.25 3.5C4.25 3.5663 4.27634 3.62989 4.32322 3.67678C4.37011 3.72366 4.4337 3.75 4.5 3.75H7C7.0663 3.75 7.12989 3.72366 7.17678 3.67678C7.22366 3.62989 7.25 3.5663 7.25 3.5C7.24951 3.14568 7.12378 2.80294 6.89505 2.53235C6.66631 2.26176 6.34929 2.08073 6 2.02125V2C5.99958 1.6023 5.84141 1.22102 5.56019 0.939806C5.27898 0.658593 4.8977 0.500422 4.5 0.5H3.5C3.1023 0.500422 2.72102 0.658593 2.43981 0.939806C2.15859 1.22102 2.00042 1.6023 2 2V6.25H1.75C1.6837 6.25 1.62011 6.27634 1.57322 6.32322C1.52634 6.37011 1.5 6.4337 1.5 6.5V7H0.5C0.433696 7 0.370107 7.02634 0.323223 7.07322C0.276339 7.12011 0.25 7.1837 0.25 7.25V8C0.25 8.0663 0.276339 8.12989 0.323223 8.17678C0.370107 8.22366 0.433696 8.25 0.5 8.25H1.25V11.25C1.25049 11.6043 1.37622 11.9471 1.60495 12.2176C1.83369 12.4882 2.15071 12.6693 2.5 12.7288V13.25C2.5 13.3163 2.52634 13.3799 2.57322 13.4268C2.62011 13.4737 2.6837 13.5 2.75 13.5C2.8163 13.5 2.87989 13.4737 2.92678 13.4268C2.97366 13.3799 3 13.3163 3 13.25V12.75H13V13.25C13 13.3163 13.0263 13.3799 13.0732 13.4268C13.1201 13.4737 13.1837 13.5 13.25 13.5C13.3163 13.5 13.3799 13.4737 13.4268 13.4268C13.4737 13.3799 13.5 13.3163 13.5 13.25V12.7288C13.8493 12.6693 14.1663 12.4882 14.395 12.2176C14.6238 11.9471 14.7495 11.6043 14.75 11.25V8.25H15.5C15.5663 8.25 15.6299 8.22366 15.6768 8.17678C15.7237 8.12989 15.75 8.0663 15.75 8V7.25C15.75 7.1837 15.7237 7.12011 15.6768 7.07322C15.6299 7.02634 15.5663 7 15.5 7ZM5.75 2.5C5.97165 2.50027 6.18695 2.57404 6.3622 2.70975C6.53744 2.84547 6.66272 3.03547 6.71844 3.25H4.78156C4.83728 3.03547 4.96256 2.84547 5.1378 2.70975C5.31305 2.57404 5.52835 2.50027 5.75 2.5ZM2 6.75H2.5V7H2V6.75ZM14.25 11.25C14.2498 11.5151 14.1443 11.7694 13.9568 11.9568C13.7694 12.1443 13.5151 12.2498 13.25 12.25H2.75C2.48486 12.2498 2.23065 12.1443 2.04317 11.9568C1.85568 11.7694 1.75025 11.5151 1.75 11.25V8.25H14.25V11.25ZM15.25 7.75H0.75V7.5H15.25V7.75Z" fill="#1A1919"/>
</svg>
