<svg width="16" height="16" viewBox="0 0 16 16" fill="none" xmlns="http://www.w3.org/2000/svg">
    <path d="M11.2359 7.99017C11.2359 8.15186 11.1046 8.28314 10.9429 8.28314H8.29926V10.9272C8.29926 11.0889 8.16797 11.2202 8.00629 11.2202C7.84461 11.2202 7.71332 11.0889 7.71332 10.9272V8.28314H5.06946C4.90778 8.28314 4.77649 8.15186 4.77649 7.99017C4.77649 7.8284 4.90778 7.6972 5.06946 7.6972H7.71332V5.05316C7.71332 4.89111 7.84461 4.76019 8.00629 4.76019C8.16797 4.76019 8.29926 4.89111 8.29926 5.05316V7.6972H10.9429C11.1046 7.6972 11.2359 7.8284 11.2359 7.99017Z" fill="#1A1919"/>
    <path d="M15.1992 2.83649C15.3609 2.83649 15.4922 2.7052 15.4922 2.54352V0.785156C15.4922 0.623474 15.3609 0.492188 15.1992 0.492188H13.4409C13.2792 0.492188 13.1479 0.623474 13.1479 0.785156V1.37146H12.191C12.0293 1.37146 11.898 1.50256 11.898 1.66443C11.898 1.82611 12.0293 1.9574 12.191 1.9574H13.1479V2.54352C13.1479 2.7052 13.2792 2.83649 13.4409 2.83649H14.027V6.83322H13.4409C13.2792 6.83322 13.1479 6.96451 13.1479 7.12619V8.88464C13.1479 9.04633 13.2792 9.17761 13.4409 9.17761H14.027V13.1481H13.4409C13.2792 13.1481 13.1479 13.2792 13.1479 13.441V14.027H9.17834V13.441C9.17834 13.2792 9.04724 13.1481 8.88538 13.1481H7.12701C6.96533 13.1481 6.83405 13.2792 6.83405 13.441V14.027H2.8363V13.441C2.8363 13.2792 2.7052 13.1481 2.54333 13.1481H1.9574V9.17761H2.54333C2.7052 9.17761 2.8363 9.04633 2.8363 8.88464V7.12619C2.8363 6.96451 2.7052 6.83322 2.54333 6.83322H1.9574V2.83649H2.54333C2.7052 2.83649 2.8363 2.7052 2.8363 2.54352V1.9574H6.83405V2.54352C6.83405 2.7052 6.96533 2.83649 7.12701 2.83649H8.88538C9.04724 2.83649 9.17834 2.7052 9.17834 2.54352V1.9574H10.1353C10.2973 1.9574 10.4282 1.82611 10.4282 1.66443C10.4282 1.50256 10.2973 1.37146 10.1353 1.37146H9.17834V0.785156C9.17834 0.623474 9.04724 0.492188 8.88538 0.492188H7.12701C6.96533 0.492188 6.83405 0.623474 6.83405 0.785156V1.37146H2.8363V0.785156C2.8363 0.623474 2.7052 0.492188 2.54333 0.492188H0.785156C0.623474 0.492188 0.492188 0.623474 0.492188 0.785156V2.54352C0.492188 2.7052 0.623474 2.83649 0.785156 2.83649H1.37146V6.83322H0.785156C0.623474 6.83322 0.492188 6.96451 0.492188 7.12619V8.88464C0.492188 9.04633 0.623474 9.17761 0.785156 9.17761H1.37146V13.1481H0.785156C0.623474 13.1481 0.492188 13.2792 0.492188 13.441V15.1992C0.492188 15.3609 0.623474 15.4922 0.785156 15.4922H2.54333C2.7052 15.4922 2.8363 15.3609 2.8363 15.1992V14.6129H6.83405V15.1992C6.83405 15.3609 6.96533 15.4922 7.12701 15.4922H8.88538C9.04724 15.4922 9.17834 15.3609 9.17834 15.1992V14.6129H13.1479V15.1992C13.1479 15.3609 13.2792 15.4922 13.4409 15.4922H15.1992C15.3609 15.4922 15.4922 15.3609 15.4922 15.1992V13.441C15.4922 13.2792 15.3609 13.1481 15.1992 13.1481H14.6129V9.17761H15.1992C15.3609 9.17761 15.4922 9.04633 15.4922 8.88464V7.12619C15.4922 6.96451 15.3609 6.83322 15.1992 6.83322H14.6129V2.83649H15.1992ZM7.41998 1.07812H8.59241V2.25055H7.41998V1.07812ZM1.07812 2.25055V1.07812H2.25037V2.25055H1.07812ZM1.07812 8.59167V7.41916H2.25037V8.59167H1.07812ZM2.25037 14.9062H1.07812V13.734H2.25037V14.9062ZM8.59241 14.9062H7.41998V13.734H8.59241V14.9062ZM14.9062 13.734V14.9062H13.7338V13.734H14.9062ZM14.9062 7.41916V8.59167H13.7338V7.41916H14.9062ZM13.7338 2.25055V1.07812H14.9062V2.25055H13.7338Z" fill="#1A1919"/>
</svg>
